<?xml version="1.0" encoding="UTF-8"?>
<svg xmlns="http://www.w3.org/2000/svg" version="1.1" xmlns:svg="http://www.w3.org/2000/svg" viewBox="0 0 100 20" width="100" height="20" fill="#FFF">
   <path d="M9.56,16.38c-2.81,0-4.8-2.34-4.8-4.91s1.99-4.91,4.8-4.91c1.87,0,3.63,1.29,4.21,2.57l3.39-1.64c-1.05-2.46-4.1-4.68-7.72-4.68C3.7,2.81.43,6.9.43,11.35c0,4.91,3.74,8.54,9.01,8.54,4.45,0,6.9-2.57,7.96-5.03l-3.39-1.64c-.59,1.4-2.34,3.16-4.45,3.16Z"/>
   <path d="M27.22,16.38c-2.34,0-4.45-1.52-4.56-3.98h12.52c0-5.27-2.93-9.48-8.07-9.48s-8.42,4.21-8.42,8.54c0,4.91,3.63,8.54,8.66,8.54,4.33,0,6.79-2.11,8.07-3.98l-3.28-1.87c-.35.47-1.76,2.22-4.91,2.22ZM27.22,6.08c2.69,0,3.98,2.34,3.98,3.28h-8.42c.35-1.76,2.11-3.28,4.45-3.28Z"/>
   <path d="M46.06,2.93c-1.52,0-3.63.59-4.68,1.99h-.12v-1.64h-3.98v16.26h3.98v-8.66c0-3.04,1.87-4.33,3.74-4.33,1.99,0,3.04,1.4,3.04,2.93v9.95h3.86v-11c.12-3.63-1.99-5.5-5.85-5.5Z"/>
   <path d="M59.75,0h-3.98v3.51h-2.34v2.81h2.34v9.71c0,2.46,1.05,3.98,4.33,3.98,1.17,0,2.22-.23,3.16-.35v-3.28c-.59.12-1.17.23-1.76.23-1.52,0-1.76-.7-1.76-1.99V6.44h3.51v-2.81h-3.51V0Z"/>
   <path d="M70.05,5.5h0l-.12-2.22h-3.98v16.26h3.98v-7.84c0-3.51,2.46-4.8,5.03-4.8v-3.98c-2.11,0-3.98.7-4.91,2.57Z"/>
   <path d="M84.67,2.93c-5.27,0-8.89,3.63-8.89,8.54s3.86,8.54,8.89,8.54,8.89-3.63,8.89-8.54-3.63-8.54-8.89-8.54ZM84.67,16.38c-2.81,0-4.68-2.34-4.68-4.91s1.99-4.91,4.68-4.91,4.68,2.34,4.68,4.91c.12,2.46-1.87,4.91-4.68,4.91Z"/>
   <rect x="94.97" y="14.27" width="5.03" height="5.03"/>
</svg>